<svg xmlns="http://www.w3.org/2000/svg" xmlns:xlink="http://www.w3.org/1999/xlink" version="1.1" width="570" height="200" viewBox="0 0 570 200" xml:space="preserve">
<desc>Created with Fabric.js 5.2.4</desc>
<defs>
</defs>
<g transform="matrix(1 0 0 1 540 540)" id="66d9e80d-3e6d-4aad-b7ee-9011c7fec595"  >
</g>
<g transform="matrix(1 0 0 1 540 540)" id="b1bb739d-b56d-48be-84e5-6ba6765b277b"  >
<rect style="stroke: none; stroke-width: 1; stroke-dasharray: none; stroke-linecap: butt; stroke-dashoffset: 0; stroke-linejoin: miter; stroke-miterlimit: 4; fill: rgb(255,255,255); fill-rule: nonzero; opacity: 1; visibility: hidden;" vector-effect="non-scaling-stroke"  x="-540" y="-540" rx="0" ry="0" width="1080" height="1080" />
</g>
<g transform="matrix(1 0 0 1 191.26 107.81)" clip-path="url(#CLIPPATH_4)"  >
<clipPath id="CLIPPATH_4" >
	<rect transform="matrix(1 0 0 1 0.27 1.62)" id="SVGID_2_" x="-192.96" y="-102.72" rx="0" ry="0" width="385.92" height="205.44" />
</clipPath>
<path style="stroke: none; stroke-width: 1; stroke-dasharray: none; stroke-linecap: butt; stroke-dashoffset: 0; stroke-linejoin: miter; stroke-miterlimit: 4; fill: rgb(0,0,0); fill-rule: nonzero; opacity: 1;" vector-effect="non-scaling-stroke"  transform=" translate(-183.57, -107.02)" d="M 362.22 161.92 C 358.276 164.10999999999999 354.12 165.813 349.75500000000005 167.04299999999998 C 345.39000000000004 168.272 340.7180000000001 168.87999999999997 335.74500000000006 168.87999999999997 C 331.69500000000005 168.87999999999997 328.29800000000006 168.30999999999997 325.55300000000005 167.16999999999996 C 322.81600000000003 166.02999999999997 320.71500000000003 164.22299999999996 319.26000000000005 161.73199999999997 C 317.80500000000006 159.24999999999997 316.98800000000006 156.06199999999998 316.81600000000003 152.16899999999998 C 316.651 148.284 317.108 143.56599999999997 318.196 138.017 L 324.04600000000005 109.217 C 324.73600000000005 105.962 325.06700000000006 103.24 325.03600000000006 101.042 C 325.0060000000001 98.852 324.7060000000001 97.104 324.1360000000001 95.792 C 323.56700000000006 94.487 322.7190000000001 93.56400000000001 321.6090000000001 93.017 C 320.4990000000001 92.47699999999999 319.1940000000001 92.207 317.7020000000001 92.2 C 313.8170000000001 92.20700000000001 309.99200000000013 92.965 306.2120000000001 94.48 C 302.4400000000001 95.995 298.6070000000001 97.84 294.7220000000001 100 L 294.7220000000001 86.8 C 298.6670000000001 84.625 302.8220000000001 82.89999999999999 307.1940000000001 81.625 C 311.56700000000006 80.365 316.2390000000001 79.728 321.2120000000001 79.72 C 325.2700000000001 79.727 328.6670000000001 80.30499999999999 331.4120000000001 81.445 C 334.1570000000001 82.592 336.2650000000001 84.40799999999999 337.7200000000001 86.88999999999999 C 339.17500000000007 89.37999999999998 339.9920000000001 92.55999999999999 340.1580000000001 96.445 C 340.3300000000001 100.338 339.87300000000005 105.04799999999999 338.7780000000001 110.583 L 332.9270000000001 139.39 C 332.2970000000001 142.713 331.98300000000006 145.451 331.98300000000006 147.611 C 331.98300000000006 149.778 332.2830000000001 151.518 332.88200000000006 152.82299999999998 C 333.48300000000006 154.13599999999997 334.32200000000006 155.058 335.40900000000005 155.59799999999998 C 336.49700000000007 156.13799999999998 337.77900000000005 156.408 339.26400000000007 156.40099999999998 C 343.14900000000006 156.408 346.97400000000005 155.658 350.7390000000001 154.14299999999997 C 354.5110000000001 152.64299999999997 358.3370000000001 150.83499999999998 362.2210000000001 148.71999999999997 L 362.2210000000001 161.92 z M 326.88 57.438 C 326.88 55.668 327.195 54.041000000000004 327.825 52.548 C 328.455 51.063 329.325 49.78 330.442 48.686 C 331.559 47.606 332.865 46.744 334.349 46.113 C 335.834 45.483 337.44 45.168 339.15 45.161 C 340.815 45.168 342.33 45.468 343.702 46.068 C 345.082 46.675 346.267 47.477999999999994 347.265 48.476 C 348.27 49.481 349.043 50.666 349.582 52.039 C 350.13 53.419000000000004 350.4 54.874 350.4 56.412 C 350.4 58.196999999999996 350.085 59.824 349.455 61.309 C 348.825 62.800999999999995 347.955 64.091 346.83799999999997 65.17099999999999 C 345.71999999999997 66.26599999999999 344.41499999999996 67.121 342.92999999999995 67.74399999999999 C 341.44599999999997 68.37399999999998 339.84 68.68899999999998 338.12199999999996 68.68199999999999 C 336.465 68.689 334.93399999999997 68.38999999999999 333.532 67.78899999999999 C 332.13 67.18799999999999 330.945 66.38599999999998 329.969 65.38099999999999 C 328.99399999999997 64.38299999999998 328.23699999999997 63.197999999999986 327.697 61.817999999999984 C 327.157 60.453 326.88 58.99 326.88 57.438 z M 201.578 120.842 C 201.81 119.762 202.05 118.337 202.306 116.56 C 202.561 114.79 202.86100000000002 112.397 203.20600000000002 109.39 C 203.55100000000002 106.39 203.978 102.618 204.48800000000003 98.065 C 205.00600000000003 93.52 205.60600000000002 87.925 206.28800000000004 81.28 L 220.33500000000004 81.28 L 218.19700000000003 101.2 C 220.20000000000005 98.29 222.36700000000002 95.522 224.70700000000002 92.912 C 227.04700000000003 90.30900000000001 229.62000000000003 88.037 232.41700000000003 86.087 C 235.22200000000004 84.14500000000001 238.27400000000003 82.60000000000001 241.58900000000003 81.444 C 244.90400000000002 80.304 248.52700000000002 79.727 252.46400000000003 79.71900000000001 C 261.89200000000005 79.72600000000001 268.40200000000004 82.674 272.002 88.569 C 275.60200000000003 94.47200000000001 276.18 102.999 273.72 114.159 L 258.6 114.159 C 259.45500000000004 110.21400000000001 259.882 106.861 259.882 104.101 C 259.882 101.349 259.5 99.121 258.72700000000003 97.426 C 257.95500000000004 95.738 256.807 94.508 255.29200000000003 93.72800000000001 C 253.77700000000004 92.956 251.96200000000002 92.56500000000001 249.83900000000003 92.558 C 245.72200000000004 92.56500000000001 241.71600000000004 93.81 237.824 96.301 C 233.93900000000002 98.798 230.376 102.061 227.151 106.096 C 223.92600000000002 110.131 221.151 114.668 218.841 119.708 C 216.531 124.748 214.859 129.803 213.824 134.873 L 207.31400000000002 167.31799999999998 L 192.24 167.31799999999998 L 201.578 120.842 z M 128.04 117.52 C 134.385 117.527 139.635 117.145 143.77499999999998 116.37299999999999 C 147.92199999999997 115.60799999999999 151.20799999999997 114.56499999999998 153.63799999999998 113.25299999999999 C 156.06799999999998 111.94799999999998 157.76999999999998 110.43299999999999 158.74499999999998 108.71499999999999 C 159.71999999999997 107.005 160.2 105.23499999999999 160.2 103.40499999999999 C 160.2 101.81499999999998 159.885 100.30799999999999 159.255 98.88299999999998 C 158.625 97.45799999999998 157.643 96.20599999999997 156.29999999999998 95.11799999999998 C 154.95799999999997 94.03799999999998 153.26999999999998 93.17499999999998 151.237 92.54499999999999 C 149.212 91.92199999999998 146.82 91.60699999999999 144.075 91.6 C 140.362 91.607 136.98 92.223 133.92 93.445 C 130.85999999999999 94.675 128.107 96.41499999999999 125.64799999999998 98.66499999999999 C 123.18799999999999 100.922 121.02099999999999 103.645 119.12999999999998 106.832 C 117.23999999999998 110.02699999999999 115.64299999999999 113.589 114.32199999999997 117.52 L 128.04 117.52 z M 112.095 129.04 C 111.81 130.54 111.6 131.94199999999998 111.457 133.255 C 111.314 134.575 111.24 135.865 111.24 137.117 C 111.24 143.349 113.107 148.12 116.827 151.434 C 120.547 154.749 126.307 156.407 134.09199999999998 156.4 C 139.13199999999998 156.407 144.134 156.032 149.08499999999998 155.282 C 154.04299999999998 154.532 158.46699999999998 153.67000000000002 162.35999999999999 152.679 L 162.35999999999999 164.919 C 158.07 166.10500000000002 153.255 167.05700000000002 147.89999999999998 167.78400000000002 C 142.55299999999997 168.51800000000003 137.12999999999997 168.87900000000002 131.64 168.87900000000002 C 119.51999999999998 168.87900000000002 110.56499999999998 166.187 104.78999999999999 160.78600000000003 C 99.01499999999999 155.38700000000003 96.11999999999999 147.57100000000003 96.11999999999999 137.33400000000003 C 96.11999999999999 129.45200000000003 97.35 122.01900000000003 99.80999999999999 115.04400000000004 C 102.26999999999998 108.07700000000004 105.66699999999999 101.97900000000004 110.00999999999999 96.74400000000004 C 114.353 91.51600000000005 119.51299999999999 87.36900000000004 125.48299999999999 84.30900000000004 C 131.453 81.25600000000004 137.956 79.72600000000004 144.983 79.71900000000004 C 149.84300000000002 79.72600000000004 154.178 80.29600000000003 157.973 81.43600000000004 C 161.775 82.58300000000004 164.99300000000002 84.15100000000004 167.61800000000002 86.14600000000003 C 170.25000000000003 88.14800000000002 172.25300000000001 90.50300000000003 173.62500000000003 93.21100000000003 C 174.99800000000002 95.92600000000003 175.68000000000004 98.85100000000003 175.68000000000004 101.98600000000003 C 175.68000000000004 106.10400000000003 174.81000000000003 109.81600000000003 173.06200000000004 113.12400000000004 C 171.32200000000003 116.43900000000004 168.54700000000005 119.27400000000004 164.73700000000005 121.64400000000003 C 160.93500000000006 124.01400000000004 156.02900000000005 125.84400000000004 150.02200000000005 127.11900000000003 C 144.01500000000004 128.40900000000002 136.74700000000004 129.04600000000002 128.22700000000003 129.03900000000002 L 112.095 129.03900000000002 z M 100.68 55.36 L 40.065 167.32 L 19.59 167.32 L 4.92 55.36 L 21.368000000000002 55.36 L 30.480000000000004 130.833 L 32.7 152.935 L 44.362 130.833 L 83.632 55.36 L 100.68 55.36 z" stroke-linecap="round" />
</g>
<g transform="matrix(1 0 0 1 193.54 109.85)" clip-path="url(#CLIPPATH_5)"  >
<clipPath id="CLIPPATH_5" >
	<rect transform="matrix(1 0 0 1 0.27 1.62)" id="SVGID_4_" x="-192.96" y="-102.72" rx="0" ry="0" width="385.92" height="205.44" />
</clipPath>
<path style="stroke: none; stroke-width: 1; stroke-dasharray: none; stroke-linecap: butt; stroke-dashoffset: 0; stroke-linejoin: miter; stroke-miterlimit: 4; fill: rgb(46,117,182); fill-rule: nonzero; opacity: 1;" vector-effect="non-scaling-stroke"  transform=" translate(-185.85, -109.06)" d="M 364.5 163.96 C 360.555 166.15 356.4 167.853 352.035 169.082 C 347.67 170.31199999999998 342.997 170.92 338.02500000000003 170.92 C 333.97400000000005 170.92 330.57700000000006 170.35 327.83200000000005 169.20999999999998 C 325.095 168.07 322.99500000000006 166.26299999999998 321.5400000000001 163.772 C 320.0850000000001 161.29 319.2680000000001 158.102 319.0950000000001 154.209 C 318.93000000000006 150.324 319.3880000000001 145.606 320.4750000000001 140.05700000000002 L 326.3260000000001 111.25700000000002 C 327.0150000000001 108.00200000000002 327.34600000000006 105.27900000000002 327.3160000000001 103.08200000000002 C 327.2860000000001 100.89200000000002 326.9860000000001 99.14400000000002 326.4160000000001 97.83200000000002 C 325.8460000000001 96.52700000000002 324.9980000000001 95.60400000000003 323.8890000000001 95.05700000000002 C 322.7790000000001 94.51700000000001 321.4740000000001 94.24700000000001 319.98200000000014 94.24000000000002 C 316.0960000000001 94.24700000000003 312.27200000000016 95.00500000000002 308.49200000000013 96.52000000000002 C 304.7190000000001 98.03500000000003 300.8870000000001 99.88000000000002 297.0020000000001 102.04000000000002 L 297.0020000000001 88.84000000000002 C 300.9470000000001 86.66500000000002 305.10200000000015 84.94000000000001 309.47500000000014 83.66500000000002 C 313.8480000000001 82.40500000000002 318.52000000000015 81.76800000000001 323.49300000000017 81.76000000000002 C 327.55100000000016 81.76800000000001 330.94800000000015 82.34500000000001 333.69300000000015 83.48500000000001 C 336.4370000000002 84.63200000000002 338.54600000000016 86.44700000000002 340.00000000000017 88.93 C 341.45500000000015 91.42 342.27200000000016 94.60000000000001 342.43800000000016 98.48500000000001 C 342.61100000000016 102.37800000000001 342.15400000000017 107.08800000000001 341.05800000000016 112.62300000000002 L 335.20800000000014 141.43 C 334.57800000000015 144.75300000000001 334.26300000000015 147.491 334.26300000000015 149.651 C 334.26300000000015 151.818 334.56300000000016 153.55800000000002 335.1630000000001 154.863 C 335.76300000000015 156.176 336.60200000000015 157.098 337.6900000000001 157.638 C 338.7780000000001 158.178 340.0600000000001 158.448 341.54500000000013 158.441 C 345.4300000000001 158.448 349.2550000000001 157.698 353.02000000000015 156.183 C 356.79200000000014 154.683 360.61800000000017 152.875 364.5020000000002 150.76 L 364.5020000000002 163.96 z M 329.16 59.478 C 329.16 57.708 329.47400000000005 56.081 330.105 54.588 C 330.735 53.103 331.605 51.82 332.72200000000004 50.726 C 333.83900000000006 49.646 335.14400000000006 48.784 336.629 48.153 C 338.11400000000003 47.522999999999996 339.719 47.208 341.42900000000003 47.201 C 343.09400000000005 47.208 344.61 47.508 345.982 48.108000000000004 C 347.362 48.715 348.547 49.518 349.545 50.516000000000005 C 350.55 51.52100000000001 351.322 52.706 351.862 54.07900000000001 C 352.41 55.45900000000001 352.67900000000003 56.91400000000001 352.67900000000003 58.452000000000005 C 352.67900000000003 60.237 352.365 61.864000000000004 351.735 63.349000000000004 C 351.105 64.84100000000001 350.235 66.131 349.117 67.211 C 348 68.306 346.695 69.161 345.21000000000004 69.78399999999999 C 343.725 70.41399999999999 342.12000000000006 70.72899999999998 340.40200000000004 70.722 C 338.74500000000006 70.729 337.21400000000006 70.42999999999999 335.81200000000007 69.829 C 334.4100000000001 69.228 333.22400000000005 68.42599999999999 332.2490000000001 67.42099999999999 C 331.27400000000006 66.42299999999999 330.51700000000005 65.238 329.9770000000001 63.85799999999999 C 329.438 62.493 329.16 61.03 329.16 59.478 z M 203.857 122.882 C 204.089 121.802 204.33 120.37700000000001 204.585 118.60000000000001 C 204.84 116.83000000000001 205.14000000000001 114.43700000000001 205.485 111.43 C 205.83 108.43 206.257 104.658 206.768 100.105 C 207.286 95.56 207.885 89.965 208.568 83.32000000000001 L 222.616 83.32000000000001 L 220.478 103.24000000000001 C 222.48000000000002 100.33000000000001 224.648 97.56200000000001 226.988 94.95200000000001 C 229.328 92.34900000000002 231.901 90.07700000000001 234.698 88.12700000000001 C 237.50300000000001 86.18500000000002 240.556 84.64000000000001 243.871 83.48400000000001 C 247.186 82.34400000000001 250.809 81.76700000000001 254.746 81.75900000000001 C 264.173 81.76700000000001 270.684 84.71400000000001 274.284 90.60900000000001 C 277.884 96.51200000000001 278.461 105.03900000000002 276.001 116.19900000000001 L 260.881 116.19900000000001 C 261.736 112.25400000000002 262.164 108.90100000000001 262.164 106.14100000000002 C 262.164 103.38900000000002 261.781 101.16100000000002 261.009 99.46600000000002 C 260.237 97.77800000000002 259.089 96.54900000000002 257.574 95.76900000000002 C 256.059 94.99700000000001 254.244 94.60600000000002 252.122 94.59900000000002 C 248.00400000000002 94.60600000000002 243.99900000000002 95.85100000000001 240.10700000000003 98.34100000000002 C 236.22200000000004 100.83900000000003 232.66000000000003 104.10100000000003 229.43500000000003 108.13600000000002 C 226.21000000000004 112.17100000000002 223.43500000000003 116.70800000000003 221.12500000000003 121.74800000000002 C 218.81500000000003 126.78800000000001 217.14300000000003 131.84300000000002 216.10700000000003 136.913 L 209.59700000000004 169.358 L 194.52 169.358 L 203.857 122.882 z M 130.32 119.56 C 136.665 119.56700000000001 141.915 119.185 146.055 118.413 C 150.202 117.648 153.487 116.60499999999999 155.917 115.29299999999999 C 158.347 113.98799999999999 160.049 112.473 161.024 110.755 C 161.999 109.045 162.479 107.27499999999999 162.479 105.445 C 162.479 103.85499999999999 162.16400000000002 102.348 161.53400000000002 100.92299999999999 C 160.90400000000002 99.49799999999999 159.92100000000002 98.24599999999998 158.579 97.15799999999999 C 157.23600000000002 96.07799999999999 155.549 95.21499999999999 153.51600000000002 94.585 C 151.491 93.96199999999999 149.09900000000002 93.64699999999999 146.353 93.64 C 142.64100000000002 93.647 139.258 94.263 136.198 95.485 C 133.138 96.715 130.38500000000002 98.455 127.926 100.705 C 125.46600000000001 102.962 123.298 105.685 121.408 108.872 C 119.518 112.067 117.92 115.629 116.6 119.56 L 130.32 119.56 z M 114.375 131.08 C 114.09 132.58 113.88 133.982 113.737 135.29500000000002 C 113.595 136.615 113.52 137.90500000000003 113.52 139.157 C 113.52 145.389 115.38799999999999 150.16000000000003 119.107 153.47400000000002 C 122.827 156.78900000000002 128.587 158.44700000000003 136.372 158.44000000000003 C 141.412 158.44700000000003 146.41400000000002 158.07200000000003 151.365 157.32200000000003 C 156.322 156.57200000000003 160.747 155.71000000000004 164.64000000000001 154.71900000000002 L 164.64000000000001 166.95900000000003 C 160.35000000000002 168.14400000000003 155.53500000000003 169.09700000000004 150.18 169.82400000000004 C 144.832 170.55800000000005 139.41 170.91900000000004 133.92000000000002 170.91900000000004 C 121.80000000000001 170.91900000000004 112.84500000000001 168.22700000000003 107.07000000000002 162.82600000000005 C 101.29500000000002 157.42700000000005 98.40000000000002 149.61100000000005 98.40000000000002 139.37400000000005 C 98.40000000000002 131.49200000000005 99.63000000000002 124.05900000000005 102.09000000000002 117.08400000000006 C 104.55000000000001 110.11700000000006 107.94700000000002 104.01900000000006 112.29000000000002 98.78400000000006 C 116.63200000000002 93.55600000000007 121.79200000000002 89.40900000000006 127.76300000000002 86.34900000000006 C 133.73300000000003 83.29600000000006 140.235 81.76600000000006 147.26300000000003 81.75900000000006 C 152.12300000000005 81.76700000000005 156.45800000000003 82.33700000000006 160.25300000000004 83.47700000000006 C 164.05600000000004 84.62400000000007 167.27300000000005 86.19200000000006 169.89800000000005 88.18700000000005 C 172.53000000000006 90.18900000000005 174.53300000000004 92.54400000000005 175.90500000000006 95.25200000000005 C 177.27800000000005 97.96700000000006 177.96000000000006 100.89200000000005 177.96000000000006 104.02700000000006 C 177.96000000000006 108.14500000000005 177.09000000000006 111.85700000000006 175.34200000000007 115.16500000000006 C 173.60200000000006 118.48000000000006 170.82700000000008 121.31500000000007 167.01700000000008 123.68500000000006 C 163.21400000000008 126.05500000000006 158.30900000000008 127.88500000000006 152.30200000000008 129.16000000000005 C 146.29400000000007 130.45000000000005 139.02700000000007 131.08700000000005 130.50700000000006 131.08000000000004 L 114.375 131.08000000000004 z M 102.96 57.4 L 42.345 169.36 L 21.87 169.36 L 7.2 57.4 L 23.647 57.4 L 32.759 132.873 L 34.979 154.975 L 46.641999999999996 132.873 L 85.913 57.4 L 102.96 57.4 z" stroke-linecap="round" />
</g>
<g transform="matrix(1 0 0 1 415.09 51.35)" clip-path="url(#CLIPPATH_6)"  >
<clipPath id="CLIPPATH_6" >
	<rect transform="matrix(1 0 0 1 -2.58 -2.16)" id="SVGID_6_" x="-38.58" y="-82.08" rx="0" ry="0" width="77.16" height="164.16" />
</clipPath>
<polygon style="stroke: none; stroke-width: 1; stroke-dasharray: none; stroke-linecap: butt; stroke-dashoffset: 0; stroke-linejoin: miter; stroke-miterlimit: 4; fill: rgb(46,117,182); fill-rule: nonzero; opacity: 1;" vector-effect="non-scaling-stroke"  points="16.55,44.76 -34.44,44.76 -16.56,-44.76 34.44,-44.76 32.31,-34.44 -6.43,-34.44 -11.92,-6.84 25.2,-6.84 23.21,3.48 -13.98,3.48 -20.13,34.32 18.6,34.32 " />
</g>
<g transform="matrix(1 0 0 1 471.07 104.93)" clip-path="url(#CLIPPATH_7)"  >
<clipPath id="CLIPPATH_7" >
	<rect transform="matrix(1 0 0 1 -2.04 -13.86)" id="SVGID_8_" x="-38.58" y="-82.08" rx="0" ry="0" width="77.16" height="164.16" />
</clipPath>
<path style="stroke: none; stroke-width: 1; stroke-dasharray: none; stroke-linecap: butt; stroke-dashoffset: 0; stroke-linejoin: miter; stroke-miterlimit: 4; fill: rgb(46,117,182); fill-rule: nonzero; opacity: 1;" vector-effect="non-scaling-stroke"  transform=" translate(-463.38, -104.14)" d="M 487.32 77.47 C 487.32 74.365 487.012 71.56 486.397 69.03999999999999 C 485.782 66.535 484.807 64.38199999999999 483.48 62.59799999999999 C 482.15200000000004 60.81999999999999 480.47200000000004 59.44799999999999 478.432 58.48799999999999 C 476.40000000000003 57.52799999999999 473.94 57.047999999999995 471.059 57.04099999999999 C 467.355 57.04799999999999 463.995 57.89599999999999 460.98 59.58299999999999 C 457.964 61.27799999999999 455.272 63.50499999999999 452.91700000000003 66.26599999999999 C 450.562 69.03399999999999 448.54400000000004 72.18299999999999 446.84900000000005 75.72399999999999 C 445.15500000000003 79.27099999999999 443.75900000000007 82.90099999999998 442.66400000000004 86.621 C 441.569 90.34899999999999 440.75200000000007 94.023 440.22600000000006 97.65299999999999 C 439.7010000000001 101.291 439.4390000000001 104.568 439.4390000000001 107.48599999999999 C 439.4390000000001 110.606 439.7530000000001 113.40299999999999 440.3690000000001 115.89399999999999 C 440.9840000000001 118.38399999999999 441.9440000000001 120.52099999999999 443.2490000000001 122.29899999999999 C 444.5540000000001 124.08399999999999 446.2340000000001 125.457 448.2890000000001 126.40899999999999 C 450.3440000000001 127.36899999999999 452.8110000000001 127.84899999999999 455.6910000000001 127.841 C 459.3960000000001 127.84899999999999 462.7630000000001 127.01599999999999 465.7790000000001 125.34299999999999 C 468.7940000000001 123.67799999999998 471.4790000000001 121.466 473.8340000000001 118.698 C 476.18900000000014 115.93799999999999 478.2140000000001 112.788 479.9090000000001 109.24099999999999 C 481.6040000000001 105.70099999999998 482.9990000000001 102.07099999999998 484.0940000000001 98.34299999999999 C 485.1900000000001 94.62299999999999 486.0070000000001 90.94099999999999 486.5320000000001 87.303 C 487.058 83.672 487.32 80.395 487.32 77.47 z M 458.88 138.16 C 458.79 140.125 458.947 141.91 459.36 143.53 C 459.772 145.15 460.469 146.545 461.452 147.707 C 462.434 148.87 463.724 149.76999999999998 465.33 150.40699999999998 C 466.93399999999997 151.045 468.878 151.35999999999999 471.157 151.35999999999999 C 473.35499999999996 151.35999999999999 475.582 150.99999999999997 477.847 150.26399999999998 C 480.11199999999997 149.53599999999997 482.50399999999996 148.29899999999998 485.017 146.55899999999997 L 489.959 154.96699999999996 C 486.434 157.42699999999996 482.984 159.18199999999996 479.594 160.23199999999994 C 476.212 161.28199999999995 472.829 161.79899999999995 469.44 161.79899999999995 C 465.78 161.79899999999995 462.487 161.30399999999995 459.554 160.29899999999995 C 456.62899999999996 159.30199999999994 454.17699999999996 157.80199999999996 452.212 155.79899999999995 C 450.246 153.80399999999995 448.844 151.31499999999994 447.996 148.32899999999995 C 447.149 145.35099999999994 446.976 141.87899999999996 447.479 137.91899999999995 C 440.699 136.74099999999996 435.58299999999997 133.60599999999997 432.133 128.50599999999994 C 428.683 123.42099999999995 426.95799999999997 116.69299999999994 426.95799999999997 108.33099999999995 C 426.95799999999997 103.72599999999994 427.36999999999995 98.99399999999994 428.195 94.12599999999995 C 429.02 89.26599999999995 430.258 84.54799999999994 431.923 79.98099999999995 C 433.588 75.42099999999995 435.681 71.10099999999996 438.194 67.03599999999994 C 440.706 62.97099999999995 443.63800000000003 59.422999999999945 446.999 56.385999999999946 C 450.35900000000004 53.355999999999945 454.16900000000004 50.940999999999946 458.41400000000004 49.15599999999995 C 462.65900000000005 47.37799999999995 467.33900000000006 46.48599999999995 472.45400000000006 46.47799999999995 C 481.54400000000004 46.48499999999995 488.37700000000007 49.10999999999995 492.9440000000001 54.35999999999995 C 497.5180000000001 59.60999999999995 499.79800000000006 67.02699999999994 499.79800000000006 76.60499999999995 C 499.79800000000006 80.99999999999994 499.4390000000001 85.48499999999994 498.70300000000003 90.06699999999995 C 497.968 94.65699999999995 496.858 99.13499999999995 495.37300000000005 103.48399999999995 C 493.88800000000003 107.84899999999995 492.02000000000004 112.00399999999995 489.75600000000003 115.94899999999996 C 487.49800000000005 119.90099999999995 484.85900000000004 123.42699999999995 481.843 126.52399999999996 C 478.82800000000003 129.62899999999996 475.416 132.20899999999995 471.598 134.26399999999995 C 467.79 136.322 463.545 137.62 458.88 138.16 z" stroke-linecap="round" />
</g>
<g transform="matrix(1 0 0 1 532.81 78.23)" clip-path="url(#CLIPPATH_8)"  >
<clipPath id="CLIPPATH_8" >
	<rect transform="matrix(1 0 0 1 2.82 -2.16)" id="SVGID_10_" x="-38.58" y="-82.08" rx="0" ry="0" width="77.16" height="164.16" />
</clipPath>
<polygon style="stroke: none; stroke-width: 1; stroke-dasharray: none; stroke-linecap: butt; stroke-dashoffset: 0; stroke-linejoin: miter; stroke-miterlimit: 4; fill: rgb(46,117,182); fill-rule: nonzero; opacity: 1;" vector-effect="non-scaling-stroke"  points="24.71,44.76 -26.76,44.76 -8.88,-44.76 3.44,-44.76 -12.38,34.32 26.76,34.32 " />
</g>
<g transform="matrix(1 0 0 1 454.99 173.03)"  >
<polygon style="stroke: none; stroke-width: 1; stroke-dasharray: none; stroke-linecap: butt; stroke-dashoffset: 0; stroke-linejoin: miter; stroke-miterlimit: 4; fill: rgb(38,38,38); fill-rule: nonzero; opacity: 1;" vector-effect="non-scaling-stroke"  points="60.3,-1.92 -60.3,-1.56 -60.3,1.92 60.3,1.68 " />
</g>
<g transform="matrix(1 0 0 1 401.05 168.89)"  >
<polygon style="stroke: none; stroke-width: 1; stroke-dasharray: none; stroke-linecap: butt; stroke-dashoffset: 0; stroke-linejoin: miter; stroke-miterlimit: 4; fill: rgb(38,38,38); fill-rule: nonzero; opacity: 1;" vector-effect="non-scaling-stroke"  points="3.96,-5.34 -6.12,2.58 -3.96,5.34 6.12,-2.58 " />
</g>
<g transform="matrix(1 0 0 1 481.51 181.31)"  >
<polygon style="stroke: none; stroke-width: 1; stroke-dasharray: none; stroke-linecap: butt; stroke-dashoffset: 0; stroke-linejoin: miter; stroke-miterlimit: 4; fill: rgb(38,38,38); fill-rule: nonzero; opacity: 1;" vector-effect="non-scaling-stroke"  points="-60.3,1.92 60.3,1.68 60.3,-1.92 -60.3,-1.56 " />
</g>
<g transform="matrix(1 0 0 1 535.51 185.51)"  >
<polygon style="stroke: none; stroke-width: 1; stroke-dasharray: none; stroke-linecap: butt; stroke-dashoffset: 0; stroke-linejoin: miter; stroke-miterlimit: 4; fill: rgb(38,38,38); fill-rule: nonzero; opacity: 1;" vector-effect="non-scaling-stroke"  points="-4.02,5.4 6.18,-2.64 4.02,-5.4 -6.18,2.64 " />
</g>
</svg>